<svg width="14" height="11" viewBox="0 0 14 11" fill="none" xmlns="http://www.w3.org/2000/svg">
<path d="M6.02496 3.02515L7.22496 3.02515" stroke="#97A1B2" stroke-width="1.25" stroke-linecap="round"/>
<path d="M0.625 4.825C0.625 2.8451 0.625 1.85515 1.24008 1.24008C1.85515 0.625 2.8451 0.625 4.825 0.625H5.425C7.4049 0.625 8.39485 0.625 9.00992 1.24008C9.625 1.85515 9.625 2.8451 9.625 4.825V6.025C9.625 8.0049 9.625 8.99485 9.00992 9.60992C8.39485 10.225 7.4049 10.225 5.425 10.225H4.825C2.8451 10.225 1.85515 10.225 1.24008 9.60992C0.625 8.99485 0.625 8.0049 0.625 6.025V4.825Z" stroke="#97A1B2" stroke-width="1.25"/>
<path d="M9.625 3.56851L9.70055 3.50618C10.97 2.45874 11.6047 1.93502 12.1149 2.18789C12.625 2.44077 12.625 3.27913 12.625 4.95585V5.89415C12.625 7.57087 12.625 8.40923 12.1149 8.66211C11.6047 8.91498 10.97 8.39126 9.70055 7.34382L9.625 7.28149" stroke="#97A1B2" stroke-width="1.25" stroke-linecap="round"/>
</svg>
