<svg width="36" height="36" viewBox="0 0 36 36" fill="none" xmlns="http://www.w3.org/2000/svg">
<path d="M18 0.5C27.665 0.5 35.5 8.33502 35.5 18C35.5 27.665 27.665 35.5 18 35.5C8.33502 35.5 0.5 27.665 0.5 18C0.5 8.33502 8.33502 0.5 18 0.5Z" fill="#1E2024"/>
<path d="M18 0.5C27.665 0.5 35.5 8.33502 35.5 18C35.5 27.665 27.665 35.5 18 35.5C8.33502 35.5 0.5 27.665 0.5 18C0.5 8.33502 8.33502 0.5 18 0.5Z" stroke="#D42727"/>
<path d="M9.66821 9.6665L26.3143 26.3332" stroke="#D42727" stroke-linecap="round"/>
<path d="M22.043 22.0564C21.9353 22.8384 21.7221 23.389 21.2996 23.812C20.4463 24.6664 19.0731 24.6664 16.3266 24.6664H15.4943C12.7479 24.6664 11.3746 24.6664 10.5214 23.812C9.66821 22.9578 9.66821 21.5829 9.66821 18.833V17.1664C9.66821 14.4164 9.66821 13.0415 10.5214 12.1872C10.8069 11.9015 11.1505 11.7113 11.5843 11.5847" stroke="#D42727" stroke-linecap="round"/>
<path d="M14.8635 11.3337C15.0651 11.3333 15.2749 11.3333 15.4934 11.3333H16.3257C19.0722 11.3333 20.4455 11.3333 21.2986 12.1875C22.1518 13.0418 22.1518 14.4167 22.1518 17.1666V18.6311M22.1518 15.6928L24.0848 14.2742C25.3107 13.4505 25.8741 13.9766 26.0561 14.3736C26.4326 15.44 26.314 17.4946 26.314 20.118C26.2252 21.7958 25.996 21.9765 25.7614 22.1615L25.7589 22.1634" stroke="#D42727" stroke-linecap="round" stroke-linejoin="round"/>
</svg>
