<svg width="40" height="40" viewBox="0 0 40 40" fill="none" xmlns="http://www.w3.org/2000/svg">
<path d="M20 0.5C30.7696 0.5 39.5 9.23045 39.5 20C39.5 30.7696 30.7696 39.5 20 39.5C9.23045 39.5 0.5 30.7696 0.5 20C0.5 9.23045 9.23045 0.5 20 0.5Z" fill="#272B30"/>
<path d="M20 0.5C30.7696 0.5 39.5 9.23045 39.5 20C39.5 30.7696 30.7696 39.5 20 39.5C9.23045 39.5 0.5 30.7696 0.5 20C0.5 9.23045 9.23045 0.5 20 0.5Z" stroke="#F0EBFF"/>
<path d="M11.6682 11.6666L28.3143 28.3332" stroke="white" stroke-linecap="round"/>
<path d="M24.043 24.0564C23.9353 24.8384 23.7221 25.389 23.2996 25.812C22.4463 26.6663 21.0731 26.6663 18.3266 26.6663H17.4943C14.7479 26.6663 13.3746 26.6663 12.5214 25.812C11.6682 24.9578 11.6682 23.5828 11.6682 20.833V19.1663C11.6682 16.4164 11.6682 15.0415 12.5214 14.1872C12.8069 13.9014 13.1505 13.7113 13.5843 13.5847" stroke="white" stroke-linecap="round"/>
<path d="M16.8636 13.3337C17.0652 13.3332 17.275 13.3332 17.4935 13.3332H18.3258C21.0723 13.3332 22.4455 13.3332 23.2987 14.1875C24.1519 15.0418 24.1519 16.4167 24.1519 19.1666V20.6311M24.1519 17.6928L26.0849 16.2742C27.3108 15.4505 27.8741 15.9765 28.0562 16.3736C28.4326 17.44 28.314 19.4946 28.314 22.118C28.2253 23.7958 27.996 23.9765 27.7614 24.1615L27.7589 24.1634" stroke="white" stroke-linecap="round" stroke-linejoin="round"/>
</svg>
