<svg width="16" height="16" viewBox="0 0 16 16" fill="none" xmlns="http://www.w3.org/2000/svg">
<path d="M7.99998 9.36341L12.7501 4.61327C12.8386 4.52162 12.9445 4.44851 13.0616 4.39822C13.1787 4.34793 13.3046 4.32146 13.432 4.32035C13.5594 4.31924 13.6858 4.34352 13.8037 4.39177C13.9217 4.44002 14.0288 4.51128 14.1189 4.60138C14.209 4.69148 14.2803 4.79862 14.3285 4.91656C14.3768 5.03449 14.401 5.16086 14.3999 5.28827C14.3988 5.41569 14.3724 5.54161 14.3221 5.65869C14.2718 5.77577 14.1987 5.88166 14.107 5.97018L8.67843 11.3988C8.49847 11.5787 8.25443 11.6797 7.99998 11.6797C7.74552 11.6797 7.50148 11.5787 7.32152 11.3988L1.89294 5.97018C1.80128 5.88166 1.72818 5.77577 1.67788 5.65869C1.62759 5.54161 1.60112 5.41569 1.60001 5.28827C1.5989 5.16086 1.62318 5.03449 1.67144 4.91656C1.71969 4.79862 1.79094 4.69148 1.88104 4.60138C1.97114 4.51128 2.07829 4.44002 2.19622 4.39177C2.31416 4.34352 2.44052 4.31924 2.56794 4.32035C2.69535 4.32146 2.82128 4.34793 2.93835 4.39822C3.05543 4.44851 3.16132 4.52162 3.24984 4.61327L7.99998 9.36341Z" fill="#97A1B2"/>
</svg>
