<svg width="20" height="21" viewBox="0 0 20 21" fill="none" xmlns="http://www.w3.org/2000/svg">
<path d="M14 9.24361C14 8.96712 14 8.82887 14.0416 8.70562C14.1626 8.3476 14.4814 8.20866 14.8009 8.06315C15.16 7.89958 15.3396 7.8178 15.5175 7.80341C15.7194 7.78708 15.9218 7.83059 16.0944 7.92748C16.3233 8.05592 16.4829 8.29999 16.6463 8.49846C17.401 9.41513 17.7784 9.87346 17.9164 10.3789C18.0279 10.7868 18.0279 11.2133 17.9164 11.6212C17.715 12.3584 17.0788 12.9763 16.6078 13.5484C16.3669 13.841 16.2465 13.9873 16.0944 14.0726C15.9218 14.1695 15.7194 14.213 15.5175 14.1967C15.3396 14.1823 15.16 14.1005 14.8009 13.9369C14.4814 13.7914 14.1626 13.6525 14.0416 13.2945C14 13.1712 14 13.033 14 12.7565V9.24361Z" stroke="white" stroke-width="1.5"/>
<path d="M6 9.24374C6 8.89554 5.99022 8.58261 5.70873 8.33781C5.60634 8.24876 5.4706 8.18694 5.19913 8.06329C4.84001 7.89972 4.66045 7.81793 4.48253 7.80354C3.94873 7.76037 3.66154 8.12469 3.3537 8.49859C2.599 9.41526 2.22165 9.87359 2.08357 10.379C1.97214 10.7869 1.97214 11.2135 2.08357 11.6213C2.28496 12.3585 2.92122 12.9765 3.39217 13.5485C3.68903 13.9091 3.97261 14.2381 4.48253 14.1968C4.66045 14.1824 4.84001 14.1006 5.19913 13.9371C5.4706 13.8134 5.60634 13.7516 5.70873 13.6626C5.99022 13.4177 6 13.1048 6 12.7566V9.24374Z" stroke="white" stroke-width="1.5"/>
<path d="M4.40002 7.8C4.40002 5.14903 6.90723 3 10 3C13.0928 3 15.6 5.14903 15.6 7.8" stroke="white" stroke-width="1.5" stroke-linecap="square" stroke-linejoin="round"/>
<path d="M15.6 14.2V14.84C15.6 16.2538 14.1674 17.4 12.4 17.4H10.8" stroke="white" stroke-width="1.5" stroke-linecap="round" stroke-linejoin="round"/>
</svg>
