<svg width="64" height="40" viewBox="0 0 64 40" fill="none" xmlns="http://www.w3.org/2000/svg">
<rect x="0.5" y="0.5" width="63" height="39" rx="19.5" stroke="#6B727E"/>
<path d="M50.0667 14.6665C50.0667 14.0774 49.5891 13.5999 49 13.5999C48.4109 13.5999 47.9333 14.0774 47.9333 14.6665C47.9333 15.2556 48.4109 15.7332 49 15.7332C49.5891 15.7332 50.0667 15.2556 50.0667 14.6665Z" stroke="#97A1B2" stroke-width="1.25"/>
<path d="M50.0667 19.9999C50.0667 19.4108 49.5891 18.9332 49 18.9332C48.4109 18.9332 47.9333 19.4108 47.9333 19.9999C47.9333 20.589 48.4109 21.0665 49 21.0665C49.5891 21.0665 50.0667 20.589 50.0667 19.9999Z" stroke="#97A1B2" stroke-width="1.25"/>
<path d="M50.0667 25.3332C50.0667 24.7441 49.5891 24.2665 49 24.2665C48.4109 24.2665 47.9333 24.7441 47.9333 25.3332C47.9333 25.9223 48.4109 26.3999 49 26.3999C49.5891 26.3999 50.0667 25.9223 50.0667 25.3332Z" stroke="#97A1B2" stroke-width="1.25"/>
</svg>
