<svg width="40" height="40" viewBox="0 0 40 40" fill="none" xmlns="http://www.w3.org/2000/svg">
  <g filter="url(#filter_enabled)">
    <rect x="2" y="2" width="36" height="36" rx="18" fill="#EBEDF0"/>
    
    <path d="M15.4852 24.5149C14.9104 23.9401 15.0059 21.4982 15.0059 21.4982M15.4852 24.5149C16.06 25.0897 18.5019 24.994 18.5019 24.994M15.4852 24.5149L19 21M24.5149 15.4851C23.9401 14.9103 21.4982 15.006 21.4982 15.006M24.5149 15.4851C25.0897 16.0599 24.994 18.5018 24.994 18.5018M24.5149 15.4851L21 19" 
      stroke="#6834FF" stroke-width="1.2" stroke-linecap="round" stroke-linejoin="round"/>
    
    <path d="M10.5 20C10.5 15.5217 10.5 13.2825 11.8912 11.8912C13.2825 10.5 15.5217 10.5 20 10.5C24.4783 10.5 26.7175 10.5 28.1088 11.8912C29.5 13.2825 29.5 15.5217 29.5 20C29.5 24.4783 29.5 26.7175 28.1088 28.1088C26.7175 29.5 24.4783 29.5 20 29.5C15.5217 29.5 13.2825 29.5 11.8912 28.1088C10.5 26.7175 10.5 24.4783 10.5 20Z" 
      stroke="#6834FF" stroke-width="1.2"/>
  </g>
  
  <defs>
    <filter id="filter_enabled" x="0" y="0" width="40" height="40" filterUnits="userSpaceOnUse" color-interpolation-filters="sRGB">
      <feFlood flood-opacity="0" result="BackgroundImageFix"/>
      <feColorMatrix in="SourceAlpha" type="matrix" values="0 0 0 0 0 0 0 0 0 0 0 0 0 0 0 0 0 0 127 0" result="hardAlpha"/>
      <feOffset/>
      <feGaussianBlur stdDeviation="1"/>
      <feComposite in2="hardAlpha" operator="out"/>
      <feColorMatrix type="matrix" values="0 0 0 0 0 0 0 0 0 0 0 0 0 0 0 0 0 0 0.32 0"/>
      <feBlend mode="normal" in2="BackgroundImageFix" result="effect1_dropShadow"/>
      <feBlend mode="normal" in="SourceGraphic" in2="effect1_dropShadow" result="shape"/>
    </filter>
  </defs>
</svg>