<svg width="104" height="32" viewBox="0 0 104 32" fill="none" xmlns="http://www.w3.org/2000/svg">
<mask id="mask0_3001_14420" style="mask-type:luminance" maskUnits="userSpaceOnUse" x="0" y="0" width="7" height="7">
<path d="M0.142008 3.51205C0.142008 5.33593 1.61467 6.83244 3.46135 6.83244C5.28466 6.83244 6.78071 5.35931 6.78071 3.51205C6.78071 1.68817 5.30803 0.19165 3.46135 0.19165C1.61467 0.19165 0.142008 1.68817 0.142008 3.51205Z" fill="white"/>
</mask>
<g mask="url(#mask0_3001_14420)">
<path d="M6.71058 -0.392822L7.34172 6.76239L0.188755 7.39373L-0.442385 0.238523L6.71058 -0.392822Z" fill="url(#paint0_linear_3001_14420)"/>
</g>
<mask id="mask1_3001_14420" style="mask-type:luminance" maskUnits="userSpaceOnUse" x="0" y="8" width="9" height="21">
<path d="M0.79652 8.14209V18.6879C0.79652 19.4595 0.866647 20.2077 1.03028 20.956C1.07703 21.2132 1.14715 21.447 1.21728 21.6809C1.42766 22.3824 1.70817 23.0839 2.05881 23.7152C2.17569 23.9257 2.29256 24.1361 2.40944 24.3465C2.47957 24.4635 2.57307 24.5804 2.6432 24.6973C2.71333 24.8142 2.80683 24.9545 2.90033 25.048C3.4146 25.7261 3.99899 26.3575 4.67689 26.8953C4.79377 27.0122 4.91065 27.1058 5.0509 27.1993C5.47166 27.5266 5.9158 27.8072 6.38331 28.0645C6.45344 28.1112 6.54694 28.1346 6.61707 28.1814C6.59369 28.0411 6.59369 27.9242 6.59369 27.7839C6.59369 26.3575 7.22484 25.0714 8.20662 24.1595C8.58063 23.8087 8.58063 23.2475 8.15987 22.9202C6.8742 21.9381 6.03268 20.3948 6.03268 18.6411V9.42816V8.14209H0.79652Z" fill="white"/>
</mask>
<g mask="url(#mask1_3001_14420)">
<path d="M8.58063 7.46387L10.3806 28.041L0.866648 28.8828L-0.933277 8.28227L8.58063 7.46387Z" fill="url(#paint1_linear_3001_14420)"/>
</g>
<path d="M22.0938 18.6877C22.0938 19.4594 22.0237 20.2076 21.86 20.9559C21.8133 21.2131 21.7432 21.4469 21.673 21.6808C21.5328 22.1718 21.3691 22.6161 21.1588 23.0604C21.0653 23.2942 20.9484 23.5046 20.8315 23.7151C20.7146 23.9255 20.5978 24.136 20.4809 24.3464C19.8731 25.3285 19.1017 26.1937 18.2134 26.9186C18.1199 27.0121 18.003 27.0822 17.8862 27.1758C17.3719 27.5733 16.8343 27.924 16.2265 28.228C16.2499 28.0877 16.2499 27.9708 16.2499 27.8305C16.2499 26.3808 15.6421 25.0947 14.6369 24.2061C14.2629 23.8554 14.2629 23.2942 14.6837 22.9668C16.2499 21.7743 17.1615 19.7166 16.6706 17.4718C16.2499 15.5076 14.6837 13.8942 12.7201 13.4499C9.1904 12.6081 6.03469 15.2972 6.03469 18.6877V9.4748C6.43208 9.24097 6.82946 9.03053 7.2736 8.86684C7.48398 8.77331 7.69436 8.70316 7.88137 8.63301C8.11513 8.56286 8.34888 8.46933 8.58264 8.42257C8.8164 8.35242 9.05015 8.30565 9.26053 8.25888C9.96181 8.11858 10.6865 8.04844 11.4111 8.04844C17.3018 8.00167 22.0938 12.7718 22.0938 18.6877Z" fill="#6834FF"/>
<path d="M26.2293 2.13244C26.2293 1.38419 26.7903 0.822998 27.5383 0.822998C28.2863 0.822998 28.8707 1.38419 28.8707 2.13244C28.8707 2.8807 28.3097 3.4419 27.5383 3.4419C26.8137 3.4419 26.2293 2.85732 26.2293 2.13244Z" fill="#AB8FFF"/>
<path d="M28.5669 4.93848H26.5098V14.3385H28.5669V4.93848Z" fill="white"/>
<path d="M30.32 4.93842H32.3771V6.13096C33.1251 5.21902 34.2238 4.70459 35.5562 4.70459C37.7769 4.70459 39.2729 6.17773 39.2729 8.39912V11.4623C39.2729 12.0001 39.5768 12.3275 40.1145 12.3275H40.3015V14.315H39.7171C38.0808 14.315 37.2159 13.4966 37.2159 11.93V9.10061C37.2159 7.67424 36.3042 6.71553 34.8783 6.71553C33.3823 6.71553 32.4005 7.69762 32.4005 9.14737V14.3384H30.3434V4.93842H30.32Z" fill="white"/>
<path d="M41.6806 11.4389V6.80905H40.0911V4.9384H41.0495C41.517 4.9384 41.7975 4.68119 41.7975 4.19015V2.38965H43.7377V4.9384H46.0519V6.80905H43.7377V11.1115C43.7377 11.9299 44.252 12.4444 45.1169 12.4444H46.0519V14.3384H44.813C42.7793 14.3384 41.6806 13.3095 41.6806 11.4389Z" fill="white"/>
<path d="M46.87 9.63847C46.87 6.8325 49.0206 4.72803 51.8724 4.72803C54.7477 4.72803 56.8982 6.85589 56.8982 9.66185C56.8982 9.8723 56.8748 10.223 56.8515 10.4335H49.0674C49.3712 11.7897 50.4933 12.7017 51.9659 12.7017C53.0412 12.7017 53.9996 12.234 54.4671 11.5091H56.758C56.0099 13.333 54.1633 14.5723 51.9426 14.5723C49.0206 14.5489 46.87 12.4444 46.87 9.63847ZM49.0907 8.74992H54.6775C54.3736 7.46385 53.2516 6.59867 51.8724 6.59867C50.5166 6.57529 49.418 7.44047 49.0907 8.74992Z" fill="white"/>
<path d="M64.0278 4.93848H66.3887L69.1237 11.8131L70.5262 8.42256C71.0639 7.04296 71.2743 5.92057 71.0639 4.93848H73.1911C73.4015 6.0141 73.1911 7.30017 72.5366 8.86683L70.199 14.3385H68.0484L64.0278 4.93848Z" fill="white"/>
<path d="M74.3365 2.13244C74.3365 1.38419 74.8975 0.822998 75.6455 0.822998C76.3936 0.822998 76.978 1.38419 76.978 2.13244C76.978 2.8807 76.4169 3.4419 75.6455 3.4419C74.8975 3.4419 74.3365 2.85732 74.3365 2.13244Z" fill="#AB8FFF"/>
<path d="M76.6507 4.93848H74.5936V14.3385H76.6507V4.93848Z" fill="white"/>
<path d="M62.9291 4.93848V6.99619H60.1942C60.1942 5.85042 61.1058 4.93848 62.2513 4.93848H62.9291Z" fill="white"/>
<path d="M60.1942 4.93848H58.1371V14.3385H60.1942V4.93848Z" fill="white"/>
<path d="M77.8428 9.63847C77.8428 6.8325 79.9934 4.72803 82.8452 4.72803C85.7205 4.72803 87.871 6.85589 87.871 9.66185C87.871 9.8723 87.8476 10.223 87.8243 10.4335H80.0635C80.3674 11.7897 81.4895 12.7017 82.9621 12.7017C84.0374 12.7017 84.9958 12.234 85.4633 11.5091H87.7541C87.0061 13.333 85.1594 14.5723 82.9387 14.5723C79.9934 14.5489 77.8428 12.4444 77.8428 9.63847ZM80.0635 8.74992H85.6503C85.3464 7.46385 84.2244 6.59867 82.8452 6.59867C81.4895 6.57529 80.3908 7.44047 80.0635 8.74992Z" fill="white"/>
<path d="M87.8009 4.93848H90.1385L92.3592 11.7663L94.65 4.93848H96.7772L99.068 11.7663L100.213 8.42256C100.634 7.01957 100.891 5.94395 100.681 4.93848H102.808C103.018 6.03748 102.715 7.27679 102.154 8.89022L100.143 14.3151H98.0161L95.7019 7.34694L93.3877 14.3151H91.2605L87.8009 4.93848Z" fill="white"/>
<path d="M26.4397 15.5779H28.0292V20.3013C28.824 19.1321 30.1097 18.3838 31.6758 18.3838C34.364 18.3838 36.3744 20.4883 36.3744 23.2943C36.3744 26.1003 34.364 28.2047 31.6758 28.2047C30.1097 28.2047 28.824 27.4799 28.0292 26.2873V27.9709H26.4397V15.5779ZM34.7147 23.2943C34.7147 21.3535 33.2888 19.9037 31.3486 19.9037C29.4318 19.9037 28.0058 21.3535 28.0058 23.2943C28.0058 25.2351 29.4318 26.6848 31.3486 26.6848C33.2888 26.6848 34.7147 25.2351 34.7147 23.2943Z" fill="white"/>
<path d="M37.1925 24.5101V18.6176H38.782V24.0425C38.782 25.6325 39.7872 26.6614 41.3534 26.6614C42.9897 26.6614 44.0883 25.5858 44.0883 23.9957V18.5942H45.6779V25.5156C45.6779 26.0768 46.0285 26.4509 46.6129 26.4509H46.7765V27.9708H46.309C45.1402 27.9708 44.3922 27.4564 44.1818 26.4977C43.4572 27.5733 42.3351 28.1813 40.8625 28.1813C38.6652 28.2047 37.1925 26.7315 37.1925 24.5101Z" fill="white"/>
<path d="M46.7999 23.2943C46.7999 20.5117 48.8102 18.3838 51.4751 18.3838C53.0412 18.3838 54.3269 19.1087 55.1217 20.3013V15.5779H56.7112V25.5157C56.7112 26.0769 57.0852 26.451 57.6462 26.451H57.8332V27.9709H57.3424C56.0801 27.9709 55.332 27.3629 55.1684 26.2406C54.3736 27.4331 53.0646 28.1814 51.4984 28.1814C48.8102 28.2047 46.7999 26.1003 46.7999 23.2943ZM55.145 23.2943C55.145 21.3535 53.7191 19.9037 51.8023 19.9037C49.8621 19.9037 48.4362 21.3535 48.4362 23.2943C48.4362 25.2351 49.8621 26.6848 51.8023 26.6848C53.6958 26.6848 55.145 25.2351 55.145 23.2943Z" fill="white"/>
<path d="M57.9034 23.2943C57.9034 20.5117 59.9137 18.3838 62.5785 18.3838C64.1447 18.3838 65.4304 19.1087 66.2251 20.3013V15.5779H67.8147V25.5157C67.8147 26.0769 68.1887 26.451 68.7497 26.451H68.9367V27.9709H68.4458C67.1835 27.9709 66.4355 27.3629 66.2719 26.2406C65.4771 27.4331 64.1681 28.1814 62.6019 28.1814C59.9137 28.2047 57.9034 26.1003 57.9034 23.2943ZM66.2251 23.2943C66.2251 21.3535 64.7992 19.9037 62.8824 19.9037C60.9422 19.9037 59.5163 21.3535 59.5163 23.2943C59.5163 25.2351 60.9422 26.6848 62.8824 26.6848C64.7992 26.6848 66.2251 25.2351 66.2251 23.2943Z" fill="white"/>
<path d="M69.5211 24.0893V18.6177H71.1106V23.645C71.1106 25.2351 72.1158 26.2639 73.682 26.2639C75.3183 26.2639 76.4169 25.2117 76.4169 23.6217V18.6411H78.0065V27.55C78.0065 30.052 76.1832 31.6888 73.7287 31.6888C71.7184 31.6888 70.1055 30.543 69.638 28.6958H71.2743C71.6015 29.6311 72.6301 30.2391 73.7521 30.2391C75.2481 30.2391 76.4403 29.1868 76.4403 27.6202V26.1938C75.7156 27.2226 74.5936 27.7838 73.2144 27.7838C70.9938 27.7838 69.5211 26.3107 69.5211 24.0893Z" fill="white"/>
<defs>
<linearGradient id="paint0_linear_3001_14420" x1="3.22973" y1="1.08113" x2="5.49024" y2="26.9074" gradientUnits="userSpaceOnUse">
<stop stop-color="#AB8FFF"/>
<stop offset="0.9897" stop-color="#693AF4"/>
<stop offset="1" stop-color="#693AF4"/>
</linearGradient>
<linearGradient id="paint1_linear_3001_14420" x1="2.99856" y1="-1.50633" x2="5.47461" y2="26.7826" gradientUnits="userSpaceOnUse">
<stop stop-color="#AB8FFF"/>
<stop offset="0.9897" stop-color="#693AF4"/>
<stop offset="1" stop-color="#693AF4"/>
</linearGradient>
</defs>
</svg>
