<svg width="36" height="36" viewBox="0 0 36 36" fill="none" xmlns="http://www.w3.org/2000/svg">
<path d="M18 0.5C27.665 0.5 35.5 8.33502 35.5 18C35.5 27.665 27.665 35.5 18 35.5C8.33502 35.5 0.5 27.665 0.5 18C0.5 8.33502 8.33502 0.5 18 0.5Z" fill="#1E2024"/>
<path d="M18 0.5C27.665 0.5 35.5 8.33502 35.5 18C35.5 27.665 27.665 35.5 18 35.5C8.33502 35.5 0.5 27.665 0.5 18C0.5 8.33502 8.33502 0.5 18 0.5Z" stroke="#D42727"/>
<path d="M9.66663 9.66675L26.3333 26.3334" stroke="#D42727" stroke-linecap="round"/>
<path d="M11.3334 17.1667C11.3334 20.8487 14.3181 23.8334 18 23.8334M18 23.8334C19.6288 23.8334 21.1212 23.2493 22.279 22.2791M18 23.8334V26.3334M18 26.3334H20.5M18 26.3334H15.5M24.6667 17.1667C24.6667 18.5429 24.2497 19.8217 23.5352 20.8837" stroke="#D42727" stroke-linecap="round"/>
<path d="M13.8334 13.8167V17.1667C13.8334 19.4679 15.6989 21.3334 18 21.3334C18.9462 21.3334 19.804 21.0081 20.5034 20.4767M21.699 19.0367C21.9978 18.4622 22.1667 17.8592 22.1667 17.1667V13.8167C22.1667 11.5156 20.3012 9.66675 18 9.66675C16.4427 9.66675 15.1084 10.4711 14.3934 11.7367" stroke="#D42727" stroke-linecap="round"/>
</svg>
