<svg width="40" height="40" viewBox="0 0 40 40" fill="none" xmlns="http://www.w3.org/2000/svg">
<rect width="40" height="40" rx="20" fill="#E92B2B"/>
<path d="M20 17.3333C21.3111 17.3333 22.6028 17.5972 23.875 18.125C25.1472 18.6528 26.2778 19.4444 27.2667 20.5C27.4 20.6333 27.4667 20.7889 27.4667 20.9667C27.4667 21.1444 27.4 21.3 27.2667 21.4333L25.7333 22.9333C25.6111 23.0556 25.4694 23.1222 25.3083 23.1333C25.1472 23.1444 25 23.1 24.8667 23L22.9333 21.5333C22.8444 21.4667 22.7778 21.3889 22.7333 21.3C22.6889 21.2111 22.6667 21.1111 22.6667 21V19.1C22.2444 18.9667 21.8111 18.8611 21.3667 18.7833C20.9222 18.7056 20.4667 18.6667 20 18.6667C19.5333 18.6667 19.0778 18.7056 18.6333 18.7833C18.1889 18.8611 17.7555 18.9667 17.3333 19.1V21C17.3333 21.1111 17.3111 21.2111 17.2667 21.3C17.2222 21.3889 17.1555 21.4667 17.0667 21.5333L15.1333 23C15 23.1 14.8528 23.1444 14.6917 23.1333C14.5305 23.1222 14.3889 23.0556 14.2667 22.9333L12.7333 21.4333C12.6 21.3 12.5333 21.1444 12.5333 20.9667C12.5333 20.7889 12.6 20.6333 12.7333 20.5C13.7111 19.4444 14.8389 18.6528 16.1167 18.125C17.3944 17.5972 18.6889 17.3333 20 17.3333Z" fill="#E8EAED"/>
</svg>
