<svg width="40" height="40" viewBox="0 0 40 40" fill="none" xmlns="http://www.w3.org/2000/svg">
<path d="M20 0.5C30.7696 0.5 39.5 9.23045 39.5 20C39.5 30.7696 30.7696 39.5 20 39.5C9.23045 39.5 0.5 30.7696 0.5 20C0.5 9.23045 9.23045 0.5 20 0.5Z" fill="#272B30"/>
<path d="M20 0.5C30.7696 0.5 39.5 9.23045 39.5 20C39.5 30.7696 30.7696 39.5 20 39.5C9.23045 39.5 0.5 30.7696 0.5 20C0.5 9.23045 9.23045 0.5 20 0.5Z" stroke="#F0EBFF"/>
<path d="M11.6667 11.6667L28.3334 28.3333" stroke="white" stroke-linecap="round"/>
<path d="M13.3333 19.1667C13.3333 22.8486 16.3181 25.8333 20 25.8333M20 25.8333C21.6287 25.8333 23.1211 25.2492 24.279 24.279M20 25.8333V28.3333M20 28.3333H22.5M20 28.3333H17.5M26.6666 19.1667C26.6666 20.5428 26.2496 21.8216 25.5351 22.8836" stroke="white" stroke-linecap="round"/>
<path d="M15.8333 15.8167V19.1667C15.8333 21.4678 17.6988 23.3333 20 23.3333C20.9461 23.3333 21.8039 23.008 22.5033 22.4767M23.6989 21.0367C23.9977 20.4621 24.1666 19.8591 24.1666 19.1667V15.8167C24.1666 13.5155 22.3011 11.6667 20 11.6667C18.4426 11.6667 17.1084 12.4711 16.3933 13.7367" stroke="white" stroke-linecap="round"/>
</svg>
