<svg width="24" height="24" viewBox="0 0 24 24" fill="none" xmlns="http://www.w3.org/2000/svg">
<path d="M19.3411 7.03389L19.7403 5.72515C19.7768 5.60576 19.8365 5.49474 19.9159 5.39842C19.9953 5.30209 20.0929 5.22235 20.2031 5.16375C20.3134 5.10515 20.4341 5.06883 20.5583 5.05687C20.6826 5.04492 20.808 5.05755 20.9274 5.09406C21.0468 5.13057 21.1578 5.19023 21.2541 5.26965C21.3504 5.34906 21.4302 5.44667 21.4888 5.5569C21.5474 5.66714 21.5837 5.78783 21.5957 5.9121C21.6076 6.03636 21.595 6.16177 21.5585 6.28115L20.4465 9.91656C20.3728 10.1575 20.2064 10.3593 19.984 10.4776C19.7616 10.596 19.5013 10.6211 19.2603 10.5476L15.6249 9.43564C15.503 9.40133 15.3892 9.34302 15.2902 9.26412C15.1912 9.18523 15.1089 9.08734 15.0482 8.97621C14.9876 8.86508 14.9497 8.74294 14.9369 8.61698C14.9241 8.49102 14.9366 8.36376 14.9736 8.24269C15.0106 8.12161 15.0715 8.00916 15.1526 7.91193C15.2337 7.8147 15.3334 7.73466 15.4459 7.67651C15.5584 7.61835 15.6813 7.58326 15.8075 7.57328C15.9338 7.5633 16.0607 7.57865 16.1809 7.61841L17.77 8.10408C17.0675 7.03855 16.0876 6.18485 14.9359 5.63494C13.7842 5.08502 12.5043 4.85973 11.234 4.98331C9.96369 5.1069 8.75119 5.57468 7.72706 6.33629C6.70293 7.0979 5.90597 8.12446 5.42202 9.30543L5.17491 9.90705C5.12997 10.0258 5.06169 10.1344 4.97409 10.2263C4.8865 10.3182 4.78137 10.3917 4.66492 10.4423C4.54847 10.4929 4.42305 10.5197 4.29608 10.521C4.16911 10.5224 4.04315 10.4983 3.92565 10.4501C3.80815 10.402 3.70149 10.3308 3.61197 10.2407C3.52244 10.1507 3.45187 10.0436 3.40442 9.92583C3.35697 9.80805 3.3336 9.68196 3.3357 9.55499C3.33779 9.42803 3.3653 9.30278 3.41661 9.18662L3.66372 8.585C4.27792 7.08643 5.2887 5.78346 6.58752 4.81598C7.88634 3.84851 9.42415 3.25308 11.0358 3.09362C12.6475 2.93416 14.2722 3.2167 15.7354 3.9109C17.1987 4.6051 18.4452 5.68474 19.3411 7.03389ZM4.58849 17.1208L4.2777 18.3669C4.2499 18.4904 4.19767 18.6072 4.12409 18.7103C4.05051 18.8134 3.95707 18.9008 3.84925 18.9672C3.74143 19.0337 3.62141 19.078 3.49624 19.0974C3.37107 19.1168 3.24329 19.111 3.12039 19.0804C2.99749 19.0497 2.88196 18.9948 2.78059 18.9188C2.67922 18.8429 2.59405 18.7474 2.53009 18.6381C2.46613 18.5288 2.42467 18.4078 2.40815 18.2822C2.39162 18.1566 2.40037 18.029 2.43386 17.9068L3.35293 14.2192C3.38394 14.0936 3.44025 13.9757 3.5184 13.8727C3.59656 13.7696 3.69493 13.6836 3.80748 13.6199C3.92003 13.5562 4.0444 13.5161 4.17298 13.5022C4.30155 13.4882 4.43162 13.5006 4.55523 13.5387L8.19349 14.4454C8.43812 14.5064 8.6485 14.6621 8.77835 14.8782C8.9082 15.0943 8.94688 15.3531 8.88588 15.5978C8.82487 15.8424 8.66919 16.0528 8.45307 16.1826C8.23696 16.3125 7.97811 16.3512 7.73348 16.2902L6.036 15.8672C6.76168 16.9781 7.78742 17.8605 8.99426 18.4121C10.2011 18.9637 11.5396 19.1618 12.8545 18.9835C14.1694 18.8052 15.4068 18.2578 16.4232 17.4048C17.4395 16.5518 18.1933 15.4281 18.5969 14.164C18.6736 13.9238 18.8425 13.7239 19.0665 13.6082C19.1775 13.5509 19.2986 13.5161 19.423 13.5056C19.5474 13.4951 19.6727 13.5093 19.7916 13.5472C19.9106 13.5852 20.0209 13.6462 20.1162 13.7267C20.2116 13.8073 20.2902 13.9059 20.3475 14.0168C20.4047 14.1277 20.4396 14.2489 20.4501 14.3733C20.4605 14.4977 20.4464 14.623 20.4084 14.7419C20.0128 15.9831 19.3499 17.1226 18.4665 18.0801C17.5831 19.0375 16.5006 19.7898 15.2951 20.2839C13.4169 21.0533 11.3324 21.1593 9.38585 20.5842C7.43929 20.0091 5.74704 18.7874 4.58849 17.1208Z" fill="#97A1B2"/>
</svg>
