<svg width="40" height="40" viewBox="0 0 40 40" fill="none" xmlns="http://www.w3.org/2000/svg">
<path d="M20 0.5C30.7696 0.5 39.5 9.23045 39.5 20C39.5 30.7696 30.7696 39.5 20 39.5C9.23045 39.5 0.5 30.7696 0.5 20C0.5 9.23045 9.23045 0.5 20 0.5Z" fill="#272B30"/>
<path d="M20 0.5C30.7696 0.5 39.5 9.23045 39.5 20C39.5 30.7696 30.7696 39.5 20 39.5C9.23045 39.5 0.5 30.7696 0.5 20C0.5 9.23045 9.23045 0.5 20 0.5Z" stroke="#F0EBFF"/>
<path d="M22 29H24M22 29C21.1716 29 20.5 28.3284 20.5 27.5V25H20M22 29H18M20 25H19.5V27.5C19.5 28.3284 18.8284 29 18 29M20 25V29M18 29H16" stroke="white" stroke-linecap="round" stroke-linejoin="round"/>
<path d="M24 11H16C13.1716 11 11.7574 11 10.8787 11.8787C10 12.7574 10 14.1716 10 17V19C10 21.8284 10 23.2426 10.8787 24.1213C11.7574 25 13.1716 25 16 25H24C26.8284 25 28.2426 25 29.1213 24.1213C30 23.2426 30 21.8284 30 19V17C30 14.1716 30 12.7574 29.1213 11.8787C28.2426 11 26.8284 11 24 11Z" stroke="white" stroke-linecap="round" stroke-linejoin="round"/>
<path d="M21.5 20C21.5 20 24 18.1588 24 17.5C24 16.8412 21.5 15 21.5 15M23.5 17.5H20.5C19.0955 17.5 18.3933 17.5 17.8889 17.8371C17.6705 17.983 17.483 18.1705 17.3371 18.3888C17 18.8933 17 19.5955 17 21" stroke="white" stroke-linecap="round" stroke-linejoin="round"/>
</svg>
