<svg width="24" height="24" viewBox="0 0 24 24" fill="none" xmlns="http://www.w3.org/2000/svg">
<path d="M4.66657 13.5999H4.3999C3.45709 13.5999 2.98569 13.5999 2.6928 13.8927C2.3999 14.1856 2.3999 14.657 2.3999 15.5999V16.9332C2.3999 17.876 2.3999 18.3474 2.6928 18.6403C2.98569 18.9332 3.45709 18.9332 4.3999 18.9332H4.66657C5.60938 18.9332 6.08078 18.9332 6.37368 18.6403C6.66657 18.3474 6.66657 17.876 6.66657 16.9332V15.5999C6.66657 14.657 6.66657 14.1856 6.37368 13.8927C6.08078 13.5999 5.60938 13.5999 4.66657 13.5999Z" stroke="#F16100" stroke-width="1.25" stroke-linecap="round" stroke-linejoin="round"/>
<path d="M12.1334 9.33325H11.8667C10.9239 9.33325 10.4525 9.33325 10.1596 9.62615C9.8667 9.91904 9.8667 10.3904 9.8667 11.3333V16.9333C9.8667 17.8761 9.8667 18.3475 10.1596 18.6404C10.4525 18.9333 10.9239 18.9333 11.8667 18.9333H12.1334C13.0762 18.9333 13.5476 18.9333 13.8405 18.6404C14.1334 18.3475 14.1334 17.8761 14.1334 16.9333V11.3333C14.1334 10.3904 14.1334 9.91904 13.8405 9.62615C13.5476 9.33325 13.0762 9.33325 12.1334 9.33325Z" stroke="#F16100" stroke-width="1.25" stroke-linecap="round" stroke-linejoin="round"/>
<path d="M19.6002 5.06665H19.3335C18.3907 5.06665 17.9193 5.06665 17.6264 5.35954C17.3335 5.65244 17.3335 6.12384 17.3335 7.06665V16.9333C17.3335 17.8761 17.3335 18.3475 17.6264 18.6404C17.9193 18.9333 18.3907 18.9333 19.3335 18.9333H19.6002C20.543 18.9333 21.0144 18.9333 21.3073 18.6404C21.6002 18.3475 21.6002 17.8761 21.6002 16.9333V7.06665C21.6002 6.12384 21.6002 5.65244 21.3073 5.35954C21.0144 5.06665 20.543 5.06665 19.6002 5.06665Z" stroke="#F16100" stroke-width="1.25" stroke-linecap="round" stroke-linejoin="round"/>
</svg>
