<svg width="7" height="12" viewBox="0 0 7 12" fill="none" xmlns="http://www.w3.org/2000/svg">
<path d="M4.40832 5.6L0.236577 1.42826C0.0830587 1.26931 -0.00188834 1.05643 3.18591e-05 0.835452C0.00195205 0.614479 0.0905858 0.403101 0.246843 0.246843C0.403101 0.0905858 0.614479 0.00195205 0.835452 3.18591e-05C1.05643 -0.00188834 1.26931 0.0830587 1.42826 0.236577L6.19584 5.00416C6.35384 5.1622 6.4426 5.37653 6.4426 5.6C6.4426 5.82347 6.35384 6.0378 6.19584 6.19584L1.42826 10.9634C1.26931 11.1169 1.05643 11.2019 0.835452 11.2C0.614479 11.198 0.403101 11.1094 0.246843 10.9532C0.0905858 10.7969 0.00195205 10.5855 3.18591e-05 10.3645C-0.00188834 10.1436 0.0830587 9.93069 0.236577 9.77174L4.40832 5.6Z" fill="#8993A2"/>
</svg>
