<svg width="16" height="16" viewBox="0 0 16 16" fill="none" xmlns="http://www.w3.org/2000/svg">
<path d="M7.3999 5.6001L8.5999 5.6001" stroke="#97A1B2" stroke-width="1.25" stroke-linecap="round"/>
<path d="M2 7.39995C2 5.42005 2 4.4301 2.61508 3.81503C3.23015 3.19995 4.2201 3.19995 6.2 3.19995H6.8C8.7799 3.19995 9.76985 3.19995 10.3849 3.81503C11 4.4301 11 5.42005 11 7.39995V8.59995C11 10.5799 11 11.5698 10.3849 12.1849C9.76985 12.8 8.7799 12.8 6.8 12.8H6.2C4.2201 12.8 3.23015 12.8 2.61508 12.1849C2 11.5698 2 10.5799 2 8.59995V7.39995Z" stroke="#97A1B2" stroke-width="1.25"/>
<path d="M11 6.14346L11.0755 6.08113C12.345 5.03369 12.9797 4.50997 13.4899 4.76284C14 5.01572 14 5.85408 14 7.5308V8.4691C14 10.1458 14 10.9842 13.4899 11.2371C12.9797 11.4899 12.345 10.9662 11.0755 9.91877L11 9.85644" stroke="#97A1B2" stroke-width="1.25" stroke-linecap="round"/>
</svg>
